<svg xmlns="http://www.w3.org/2000/svg" xmlns:xlink="http://www.w3.org/1999/xlink" width="1in" height="1in" viewBox="0 0 72 72"><defs><style>.a{stroke:#999;fill:url(#a);}.a,.b,.c{stroke-miterlimit:10;}.a,.b{stroke-width:0.5px;}.b{fill:#f0f0f0;stroke:#ececec;}.c{fill:none;stroke:#1a1a1a;stroke-width:1.5px;}</style><linearGradient id="a" x1="36" y1="68.9" x2="36" y2="4.1" gradientUnits="userSpaceOnUse"><stop offset="0" stop-color="#8c8c8c"/><stop offset="1" stop-color="#d2d2d2"/></linearGradient></defs><title>BiometricDiaryIcon</title><rect class="a" x="3.6" y="4.1" width="64.8" height="64.8" rx="3.36" ry="3.36"/><rect class="b" x="7.2" y="6.7" width="57.6" height="57.6" rx="3.36" ry="3.36"/><path class="c" d="M59.4,18.79V52.22H12.6V18.79"/><path class="c" d="M36,51.75V21.67a40.68,40.68,0,0,0-21.06-2.14V49.62A40.53,40.53,0,0,1,36,51.75"/><path class="c" d="M36,51.75V21.67a40.68,40.68,0,0,1,21.06-2.14V49.62A40.53,40.53,0,0,0,36,51.75"/><path class="c" d="M33.48,25.52a31.13,31.13,0,0,0-8.27-1.91,30.58,30.58,0,0,0-7.75.29"/><path class="c" d="M33.48,30.86A31.13,31.13,0,0,0,25.21,29a30.58,30.58,0,0,0-7.75.29"/><path class="c" d="M38.52,25.52a31.13,31.13,0,0,1,8.27-1.91,30.58,30.58,0,0,1,7.75.29"/><path class="c" d="M38.52,30.86A31.13,31.13,0,0,1,46.79,29a30.58,30.58,0,0,1,7.75.29"/><path class="c" d="M38.52,36.21a30.7,30.7,0,0,1,8.27-1.92,31.05,31.05,0,0,1,7.75.29"/><path class="c" d="M38.52,41.55a30.7,30.7,0,0,1,8.27-1.92,31.05,31.05,0,0,1,7.75.29"/><path class="c" d="M38.52,46.89A30.36,30.36,0,0,1,46.79,45a31.11,31.11,0,0,1,7.75.28"/><path class="c" d="M33.48,36.21a30.7,30.7,0,0,0-8.27-1.92,31.05,31.05,0,0,0-7.75.29"/><path class="c" d="M33.48,41.55a30.7,30.7,0,0,0-8.27-1.92,31.05,31.05,0,0,0-7.75.29"/><path class="c" d="M33.48,46.89A30.36,30.36,0,0,0,25.21,45a31.11,31.11,0,0,0-7.75.28"/></svg>