<svg width="500" height="500" viewBox="0 0 500 500" fill="none" xmlns="http://www.w3.org/2000/svg">
<g filter="url(#filter0_ii)">
<path d="M49 46C49 35.5066 57.5066 27 68 27H236C246.493 27 255 35.5066 255 46V454C255 464.493 246.493 473 236 473H68C57.5066 473 49 464.493 49 454V46Z" fill="white"/>
</g>
<path d="M68 30H236C244.837 30 252 37.1634 252 46V454C252 462.837 244.837 470 236 470H68C59.1634 470 52 462.837 52 454V46C52 37.1634 59.1634 30 68 30Z" stroke="black" stroke-width="6"/>
<rect x="46" y="106" width="5" height="55" fill="black"/>
<rect x="252" y="103" width="5" height="28" fill="black"/>
<circle cx="324" cy="280" r="130" fill="white"/>
<circle cx="324" cy="280" r="115" fill="white" stroke="black" stroke-width="10"/>
<circle cx="284" cy="240" r="16" fill="black"/>
<circle cx="364" cy="240" r="16" fill="black"/>
<path fill-rule="evenodd" clip-rule="evenodd" d="M269.764 333C275.981 308.847 297.906 291 324 291C350.094 291 372.019 308.847 378.236 333H366.389C360.213 315.535 343.555 303.023 323.975 303.023C304.395 303.023 287.737 315.535 281.561 333H269.764Z" fill="black"/>
<defs>
<filter id="filter0_ii" x="49" y="27" width="206" height="446" filterUnits="userSpaceOnUse" color-interpolation-filters="sRGB">
<feFlood flood-opacity="0" result="BackgroundImageFix"/>
<feBlend mode="normal" in="SourceGraphic" in2="BackgroundImageFix" result="shape"/>
<feColorMatrix in="SourceAlpha" type="matrix" values="0 0 0 0 0 0 0 0 0 0 0 0 0 0 0 0 0 0 127 0" result="hardAlpha"/>
<feOffset dy="-10"/>
<feComposite in2="hardAlpha" operator="arithmetic" k2="-1" k3="1"/>
<feColorMatrix type="matrix" values="0 0 0 0 0 0 0 0 0 0 0 0 0 0 0 0 0 0 1 0"/>
<feBlend mode="normal" in2="shape" result="effect1_innerShadow"/>
<feColorMatrix in="SourceAlpha" type="matrix" values="0 0 0 0 0 0 0 0 0 0 0 0 0 0 0 0 0 0 127 0" result="hardAlpha"/>
<feOffset dy="10"/>
<feComposite in2="hardAlpha" operator="arithmetic" k2="-1" k3="1"/>
<feColorMatrix type="matrix" values="0 0 0 0 0 0 0 0 0 0 0 0 0 0 0 0 0 0 1 0"/>
<feBlend mode="normal" in2="effect1_innerShadow" result="effect2_innerShadow"/>
</filter>
</defs>
</svg>
